<svg height="35" viewBox="0 0 35 35" width="35" xmlns="http://www.w3.org/2000/svg"><path d="m14.4680423.03250497c.1595486.03946586.3083411.11383923.4357068.21776093.1273657.10392169.2300607.23480189.3007435.38320938.0706828.14840664.1075609.31064424.1079877.47501598 0 1.35371289.5377188 2.6519722 1.4949249 3.60918682.9572914.95721463 2.2555337 1.49497613 3.6092636 1.49497613.7822064.00145975 1.5536566-.1835022 2.2501557-.53958833.1709022-.08792672.3575971-.14083641.5491578-.15561322s.3841459.00887804.5664871.06957308c.182512.0596792.3514508.15481078.4970847.27993989.145634.12512911.265146.2777972.3516215.44922869.589109 1.16338997 1.6020589 2.05640102 2.8301305 2.49491631 1.2280716.43843846 2.5776187.38901169 3.7702635-.13829251.3430849-.15637297.7332917-.17388148 1.0889254-.0488292.3556337.12506081.6490358.38303609.8185721.71971858 1.2268765 2.4190945 1.8644732 5.09403 1.8609178 7.8064412.0027018 3.3109957-.9339312 6.554894-2.7011728 9.3548904s-4.2926164 5.0411033-7.2827223 6.4632112c-2.990106 1.4220226-6.3222724 1.966656-9.6095365 1.5706443-3.287264-.396097-6.39466249-1.7166197-8.96144821-3.8082512-2.56674304-2.0916314-4.48743814-4.8684937-5.53903313-8.008075-1.05158987-3.1395814-1.190917-6.5131502-.40179948-9.7287924.78912094-3.21564223 2.47430048-6.14139091 4.85982058-8.43753308 2.38552865-2.29614217 5.37355164-3.86840844 8.61693774-4.53420524.1610851-.03257352.327463-.02899854.4870115.01046729zm7.1224055 25.89563243c-.2829021.056256-.5427554.1951461-.7466941.3990849-.2039388.2040241-.3428289.4637921-.3990849.7466941-.056256.2829021-.0274024.5761334.0829755.8426453.1103779.2664265.2973289.4941823.5371213.6544138.2397923.1603168.5217554.245768.8102062.245768.3867922 0 .7577064-.153573 1.0312182-.4270849.2734265-.2735118.4270849-.644426.4270849-1.0312181 0-.2884509-.0855365-.570414-.245768-.8102063-.1602315-.2397924-.3879873-.4267434-.6544992-.5371213-.2664265-.1103779-.5596578-.1392315-.8425599-.0829755zm-9.0345128-4.3469944c-.5657187.1125974-1.0854254.3903775-1.4933883.7982551-.4078775.4078775-.6856576.9275841-.7981697 1.4933883-.1125974.5658041-.0548048 1.1521814.165951 1.6851198.2207558.5330237.5945724.9885353 1.0742425 1.3089983.4796702.320463 1.0435109.491536 1.6204126.491536.773499 0 1.5154127-.3073167 2.062351-.854255.5470237-.5470237.8543404-1.2888521.8543404-2.0624364 0-.5768164-.171073-1.1407425-.4916214-1.6204126-.320463-.4795847-.7759746-.8534013-1.3089129-1.0741571s-1.119401-.2785485-1.6852052-.1660364zm13.9963967-2.930606c-.4242678.0843414-.8140477.2927191-1.1199986.59867-.3059508.3058654-.5142432.6956454-.5986699 1.1199985-.0844268.4243531-.041061.8641575.1244632 1.2638399.1656096.3997677.4459507.7414015.8056819.9817914.3597313.2403046.7826332.3686093 1.2153521.3686093.5801456 0 1.1364742-.2304875 1.5467419-.6406699.4102678-.4102678.6406699-.9666817.6406699-1.5468273 0-.4326336-.1282193-.8555355-.3686093-1.2152667-.2403899-.3597313-.5820236-.6401578-.981706-.8056819-.3997678-.1656096-.8395721-.20889-1.2639252-.1244633zm-21.12456433-.2576338c-.282885.0563414-.54272979.1952314-.74668562.3991702-.2039473.2039388-.3428459.4637921-.39911047.7466942-.05627309.282902-.02739386.576048.08298404.8425599.11037791.2665118.29729474.4942676.53712126.6544991.23981799.1602315.5217725.245768.81019774.245768.38677512 0 .75770635-.1536583 1.03120112-.4271702.27348623-.2734265.42713603-.644426.42713603-1.0311328 0-.2884509-.08552794-.5704139-.24577651-.8102063-.16024004-.2398777-.38800438-.4267433-.65447355-.5371212-.26647771-.1103779-.5597005-.1393169-.84259404-.0830609zm15.40352293-3.6838733c-.2665119.1103779-.4942677.2973289-.6544992.5371212-.1602315.2398778-.245768.5218408-.245768.8102063 0 .3867922.1536584.7577064.4270848 1.0312182.2735119.2735118.644426.4271702 1.0312182.4271702.2884509 0 .5704139-.0855365.8102063-.245768.2397924-.1603169.4267434-.3880727.5371213-.6544992.1103779-.2665118.1392315-.5597431.0829755-.8425598-.0562561-.2829021-.1951461-.5427554-.3990849-.7466942-.2039387-.2040241-.4637921-.3429142-.7466941-.3991702-.2829021-.0562561-.5761335-.0274024-.8425599.0829755zm-8.1919529-5.33621268c-.773499 0-1.5154127.30731668-2.062351.85434038-.5470237.5469383-.8543404 1.288852-.8543404 2.062351 0 .5769017.17107295 1.1407424.4916213 1.6204125.320463.4796702.7759746.8534868 1.308913 1.0742426.5329383.2207558 1.119401.2785484 1.6852051.165951.5657188-.1125121 1.0854255-.3902922 1.4933883-.7981697.4078776-.4079629.6856577-.9276696.7981698-1.4933884.1125974-.5658041.0548048-1.1522668-.1659511-1.6852051-.2207558-.5329383-.5945724-.98845-1.0742425-1.30891296-.4796701-.32054837-1.0435108-.49162132-1.6204125-.49162132z" fill="#fff"/></svg>